<svg width="61" height="60" viewBox="0 0 61 60" fill="none" xmlns="http://www.w3.org/2000/svg">
<path d="M8 7.5L53 52.5" stroke="white" stroke-opacity="0.87" stroke-width="2.91607" stroke-linecap="round" stroke-linejoin="round"/>
<path d="M38 27.5005V25.0005L49.3825 19.3105C49.7636 19.1201 50.1869 19.0302 50.6125 19.0494C51.038 19.0686 51.4516 19.1962 51.814 19.4201C52.1764 19.644 52.4756 19.9567 52.6831 20.3287C52.8907 20.7007 52.9998 21.1196 53 21.5455V38.4555C53.0001 38.9764 52.8376 39.4843 52.5351 39.9083C52.2325 40.3323 51.8051 40.6513 51.3125 40.8205" stroke="white" stroke-opacity="0.87" stroke-width="2.91607" stroke-linecap="round" stroke-linejoin="round"/>
<path d="M25.5 15H33C34.3261 15 35.5979 15.5268 36.5355 16.4645C37.4732 17.4021 38 18.6739 38 20V27.5M38 37.5V40C38 41.3261 37.4732 42.5978 36.5355 43.5355C35.5979 44.4732 34.3261 45 33 45H13C11.6739 45 10.4021 44.4732 9.46447 43.5355C8.52678 42.5978 8 41.3261 8 40V20C8 18.6739 8.52678 17.4021 9.46447 16.4645C10.4021 15.5268 11.6739 15 13 15H15.5" stroke="white" stroke-opacity="0.87" stroke-width="2.91607" stroke-linecap="round" stroke-linejoin="round"/>
</svg>
