<svg width="24" height="24" viewBox="0 0 24 24" fill="none" xmlns="http://www.w3.org/2000/svg">
<path fill-rule="evenodd" clip-rule="evenodd" d="M17.2501 5.50575C15.1676 5.50575 14.062 6.54717 12.426 6.52594C10.7895 6.54717 9.68424 5.50575 7.60149 5.50575C5.94381 5.50575 3.83945 6.52594 2.8832 8.01408C1.11934 10.7351 1.28921 13.6901 2.03312 16.7505C2.84073 20.0036 5.68862 24 7.94157 24C9.79037 24 10.6196 23.0004 12.426 23.0004C14.2319 23.0004 15.0395 24 16.8678 24C18.9503 24 21.4368 20.577 22.5 17.5371C20.4593 16.7293 19.0776 14.7102 19.0776 12.563C19.0776 10.4374 20.162 8.80064 21.8197 7.86544C20.7998 6.48347 18.8441 5.50575 17.2501 5.50575ZM16.6973 0C13.7011 0.318937 11.4697 2.82717 11.6608 5.67567C14.6574 5.37802 16.8678 2.84845 16.6973 0Z" fill="#7A7A7A"/>
</svg>
