<svg width="32" height="32" viewBox="0 0 32 32" fill="none" xmlns="http://www.w3.org/2000/svg">
<g clip-path="url(#clip0)">
<path d="M16.013 4.29953e-06C24.8482 0.00640557 32.0038 7.17103 31.9998 16.0064C31.9958 24.853 24.829 32.0096 15.9841 32C7.11373 31.9912 -0.0130305 24.8226 -0.000226916 15.924C0.0125766 7.13583 7.19535 -0.00639698 16.013 4.29953e-06ZM26.4543 7.96639C26.4118 7.9848 26.367 8.0008 26.327 8.02321C25.5604 8.44648 24.753 8.76177 23.896 8.94737C23.7951 8.96901 23.7223 8.96101 23.6422 8.88261C22.6636 7.91838 21.4921 7.4743 20.1213 7.64553C18.6905 7.82397 17.5726 8.52648 16.814 9.75874C16.237 10.6949 16.1154 11.7183 16.3267 12.7865C16.3491 12.8994 16.3379 12.9274 16.2155 12.9202C15.7185 12.8906 15.2256 12.8306 14.7366 12.7378C11.8462 12.188 9.4568 10.7782 7.55065 8.54493C7.43461 8.40888 7.40421 8.43773 7.33459 8.56968C6.46075 10.2244 6.77044 12.2977 8.0908 13.6275C8.28525 13.8236 8.50051 13.9964 8.76139 14.1917C8.37967 14.1645 8.05559 14.1156 7.7363 14.0276C7.41781 13.9396 7.11853 13.8035 6.80085 13.6483C6.80725 14.6949 7.11853 15.6063 7.75311 16.4017C8.38928 17.1987 9.21428 17.7068 10.2082 17.9492C9.5928 18.1245 8.97344 18.1364 8.30606 18.022C9.03828 19.8832 10.3634 20.885 12.3536 21.0466C10.4523 22.4821 8.34447 23.0574 5.97262 22.831C6.33111 23.067 6.6696 23.2583 7.0169 23.4327C9.51356 24.6889 12.1431 25.0506 14.8879 24.5729C17.9471 24.04 20.4342 22.5333 22.3091 20.064C24.0992 17.7075 24.9675 15.0294 24.917 12.064C24.9147 11.94 24.9435 11.8568 25.0475 11.7807C25.5516 11.4119 26.0037 10.9854 26.4095 10.5117C26.6335 10.25 26.8512 9.98198 27.0536 9.65954C26.8263 9.74518 26.6359 9.82198 26.4422 9.88918C26.2526 9.95478 26.0605 10.018 25.8669 10.0708C25.6677 10.1252 25.4651 10.1716 25.2627 10.2132C25.0667 10.2532 24.8682 10.282 24.6714 10.3157C24.6858 10.2653 24.7082 10.2484 24.7322 10.2324C25.2483 9.89078 25.6812 9.46585 26.0102 8.94181C26.2014 8.63697 26.3822 8.32487 26.4518 7.96399C26.455 7.95999 26.4582 7.95599 26.4623 7.95199C26.4591 7.95679 26.4566 7.96159 26.4543 7.96639Z" fill="white"/>
<path d="M26.4543 7.96627C26.4566 7.96156 26.459 7.95686 26.4614 7.95215C26.4582 7.95607 26.455 7.96 26.4512 7.96313C26.4519 7.96313 26.4543 7.96627 26.4543 7.96627Z" fill="white"/>
</g>
<defs>
<clipPath id="clip0">
<rect width="32" height="32" fill="white"/>
</clipPath>
</defs>
</svg>
