<svg width="84" height="32" viewBox="0 0 84 32" fill="none" xmlns="http://www.w3.org/2000/svg">
<path d="M3.63708 2.06062V1.63135H21.6742L27.5044 14.5718L31.7737 1.63135H46.962V2.06062C43.239 2.34159 42.9268 2.92696 42.9268 9.03037V23.0791C42.9268 29.1748 43.3249 29.6977 47.4849 30.0411V30.4391H27.8322V30.0021C31.4693 29.7445 31.8595 29.1357 31.8595 23.0401L31.7034 3.32501L22.7746 30.4391H21.8537C21.8537 30.4391 10.5522 7.91427 9.63904 5.93184C7.94538 2.49769 5.89269 2.29476 3.63708 2.0294V2.06062Z" fill="white"/>
<path d="M72.0702 16.9055V23.0479C72.0702 29.1435 72.4136 29.7523 76.0975 30.0099V30.4391H57.2253V30.0021C60.9092 29.7445 61.2526 29.1357 61.2526 23.0401V18.7318L54.1112 6.94647C51.996 3.40305 50.8721 2.45086 48.4448 2.06062V1.63135H67.4809V2.06062C65.9668 2.23232 65.1941 2.96598 65.1941 4.18354C65.1941 5.17476 65.6702 6.47818 66.7551 8.24988L70.2985 14.0489L72.0702 16.9367V16.9055Z" fill="white"/>
<path d="M83.9415 6.82926C83.9415 8.08271 83.5698 9.30801 82.8734 10.3502C82.177 11.3924 81.1872 12.2047 80.0292 12.6844C78.8712 13.1641 77.5969 13.2896 76.3675 13.045C75.1382 12.8005 74.0089 12.1969 73.1226 11.3106C72.2363 10.4243 71.6327 9.29502 71.3881 8.06566C71.1436 6.83629 71.2691 5.56202 71.7488 4.40398C72.2285 3.24594 73.0408 2.25615 74.083 1.55977C75.1252 0.863391 76.3505 0.491699 77.6039 0.491699C79.2841 0.493765 80.8949 1.16213 82.083 2.35021C83.271 3.53828 83.9394 5.14907 83.9415 6.82926Z" fill="white"/>
<path d="M13.2683 25.3893C13.2698 26.6431 12.8994 27.8692 12.204 28.9124C11.5085 29.9556 10.5193 30.7692 9.36139 31.25C8.20349 31.7309 6.92897 31.8575 5.69909 31.6139C4.46921 31.3702 3.33924 30.7672 2.45213 29.8812C1.56503 28.9952 0.960659 27.866 0.715489 26.6364C0.47032 25.4068 0.595368 24.1322 1.07481 22.9737C1.55426 21.8152 2.36655 20.8249 3.40893 20.1282C4.4513 19.4315 5.67692 19.0596 6.9307 19.0596C8.61017 19.0596 10.221 19.7262 11.4093 20.913C12.5976 22.0999 13.2662 23.7099 13.2683 25.3893Z" fill="white"/>
</svg>
