<svg width="1440" height="48" viewBox="0 0 1440 48" fill="none" xmlns="http://www.w3.org/2000/svg">
<g clip-path="url(#clip0)">
<path fill-rule="evenodd" clip-rule="evenodd" d="M756 17C752.686 17 750 19.6863 750 23V75C750 78.3137 752.686 81 756 81C759.314 81 762 78.3137 762 75V23C762 19.6863 759.314 17 756 17ZM774 35C774 31.6863 776.686 29 780 29C783.314 29 786 31.6863 786 35V63C786 66.3137 783.314 69 780 69C776.686 69 774 66.3137 774 63V35ZM852 29C848.686 29 846 31.6863 846 35V63C846 66.3137 848.686 69 852 69C855.314 69 858 66.3137 858 63V35C858 31.6863 855.314 29 852 29ZM1044 29C1040.69 29 1038 31.6863 1038 35V63C1038 66.3137 1040.69 69 1044 69C1047.31 69 1050 66.3137 1050 63V35C1050 31.6863 1047.31 29 1044 29ZM972 37C968.686 37 966 39.6863 966 43V55C966 58.3137 968.686 61 972 61C975.314 61 978 58.3137 978 55V43C978 39.6863 975.314 37 972 37ZM996 43C992.686 43 990 45.6863 990 49C990 52.3137 992.686 55 996 55C999.314 55 1002 52.3137 1002 49C1002 45.6863 999.314 43 996 43ZM1014 49C1014 45.6863 1016.69 43 1020 43C1023.31 43 1026 45.6863 1026 49C1026 52.3137 1023.31 55 1020 55C1016.69 55 1014 52.3137 1014 49ZM1062 49C1062 45.6863 1064.69 43 1068 43C1071.31 43 1074 45.6863 1074 49C1074 52.3137 1071.31 55 1068 55C1064.69 55 1062 52.3137 1062 49ZM1092 43C1088.69 43 1086 45.6863 1086 49C1086 52.3137 1088.69 55 1092 55C1095.31 55 1098 52.3137 1098 49C1098 45.6863 1095.31 43 1092 43ZM1110 49C1110 45.6863 1112.69 43 1116 43C1119.31 43 1122 45.6863 1122 49C1122 52.3137 1119.31 55 1116 55C1112.69 55 1110 52.3137 1110 49ZM1140 43C1136.69 43 1134 45.6863 1134 49C1134 52.3137 1136.69 55 1140 55C1143.31 55 1146 52.3137 1146 49C1146 45.6863 1143.31 43 1140 43ZM1158 49C1158 45.6863 1160.69 43 1164 43C1167.31 43 1170 45.6863 1170 49C1170 52.3137 1167.31 55 1164 55C1160.69 55 1158 52.3137 1158 49ZM1188 43C1184.69 43 1182 45.6863 1182 49C1182 52.3137 1184.69 55 1188 55C1191.31 55 1194 52.3137 1194 49C1194 45.6863 1191.31 43 1188 43ZM1206 49C1206 45.6863 1208.69 43 1212 43C1215.31 43 1218 45.6863 1218 49C1218 52.3137 1215.31 55 1212 55C1208.69 55 1206 52.3137 1206 49ZM1236 43C1232.69 43 1230 45.6863 1230 49C1230 52.3137 1232.69 55 1236 55C1239.31 55 1242 52.3137 1242 49C1242 45.6863 1239.31 43 1236 43ZM1254 49C1254 45.6863 1256.69 43 1260 43C1263.31 43 1266 45.6863 1266 49C1266 52.3137 1263.31 55 1260 55C1256.69 55 1254 52.3137 1254 49ZM1284 43C1280.69 43 1278 45.6863 1278 49C1278 52.3137 1280.69 55 1284 55C1287.31 55 1290 52.3137 1290 49C1290 45.6863 1287.31 43 1284 43ZM1302 49C1302 45.6863 1304.69 43 1308 43C1311.31 43 1314 45.6863 1314 49C1314 52.3137 1311.31 55 1308 55C1304.69 55 1302 52.3137 1302 49ZM1332 43C1328.69 43 1326 45.6863 1326 49C1326 52.3137 1328.69 55 1332 55C1335.31 55 1338 52.3137 1338 49C1338 45.6863 1335.31 43 1332 43ZM1350 49C1350 45.6863 1352.69 43 1356 43C1359.31 43 1362 45.6863 1362 49C1362 52.3137 1359.31 55 1356 55C1352.69 55 1350 52.3137 1350 49ZM1380 43C1376.69 43 1374 45.6863 1374 49C1374 52.3137 1376.69 55 1380 55C1383.31 55 1386 52.3137 1386 49C1386 45.6863 1383.31 43 1380 43ZM1398 49C1398 45.6863 1400.69 43 1404 43C1407.31 43 1410 45.6863 1410 49C1410 52.3137 1407.31 55 1404 55C1400.69 55 1398 52.3137 1398 49ZM1428 43C1424.69 43 1422 45.6863 1422 49C1422 52.3137 1424.69 55 1428 55C1431.31 55 1434 52.3137 1434 49C1434 45.6863 1431.31 43 1428 43ZM1446 49C1446 45.6863 1448.69 43 1452 43C1455.31 43 1458 45.6863 1458 49C1458 52.3137 1455.31 55 1452 55C1448.69 55 1446 52.3137 1446 49ZM1476 43C1472.69 43 1470 45.6863 1470 49C1470 52.3137 1472.69 55 1476 55C1479.31 55 1482 52.3137 1482 49C1482 45.6863 1479.31 43 1476 43ZM1494 49C1494 45.6863 1496.69 43 1500 43C1503.31 43 1506 45.6863 1506 49C1506 52.3137 1503.31 55 1500 55C1496.69 55 1494 52.3137 1494 49ZM1524 43C1520.69 43 1518 45.6863 1518 49C1518 52.3137 1520.69 55 1524 55C1527.31 55 1530 52.3137 1530 49C1530 45.6863 1527.31 43 1524 43ZM1542 49C1542 45.6863 1544.69 43 1548 43C1551.31 43 1554 45.6863 1554 49C1554 52.3137 1551.31 55 1548 55C1544.69 55 1542 52.3137 1542 49ZM1572 43C1568.69 43 1566 45.6863 1566 49C1566 52.3137 1568.69 55 1572 55C1575.31 55 1578 52.3137 1578 49C1578 45.6863 1575.31 43 1572 43ZM1590 49C1590 45.6863 1592.69 43 1596 43C1599.31 43 1602 45.6863 1602 49C1602 52.3137 1599.31 55 1596 55C1592.69 55 1590 52.3137 1590 49ZM1620 43C1616.69 43 1614 45.6863 1614 49C1614 52.3137 1616.69 55 1620 55C1623.31 55 1626 52.3137 1626 49C1626 45.6863 1623.31 43 1620 43ZM1638 49C1638 45.6863 1640.69 43 1644 43C1647.31 43 1650 45.6863 1650 49C1650 52.3137 1647.31 55 1644 55C1640.69 55 1638 52.3137 1638 49ZM1668 43C1664.69 43 1662 45.6863 1662 49C1662 52.3137 1664.69 55 1668 55C1671.31 55 1674 52.3137 1674 49C1674 45.6863 1671.31 43 1668 43ZM1686 49C1686 45.6863 1688.69 43 1692 43C1695.31 43 1698 45.6863 1698 49C1698 52.3137 1695.31 55 1692 55C1688.69 55 1686 52.3137 1686 49ZM948 37C944.686 37 942 39.6863 942 43V55C942 58.3137 944.686 61 948 61C951.314 61 954 58.3137 954 55V43C954 39.6863 951.314 37 948 37ZM918 39C918 35.6863 920.686 33 924 33C927.314 33 930 35.6863 930 39V59C930 62.3137 927.314 65 924 65C920.686 65 918 62.3137 918 59V39ZM900 43C896.686 43 894 45.6863 894 49C894 52.3137 896.686 55 900 55C903.314 55 906 52.3137 906 49C906 45.6863 903.314 43 900 43ZM870 49C870 45.6863 872.686 43 876 43C879.314 43 882 45.6863 882 49C882 52.3137 879.314 55 876 55C872.686 55 870 52.3137 870 49ZM822 43C822 39.6863 824.686 37 828 37C831.314 37 834 39.6863 834 43V55C834 58.3137 831.314 61 828 61C824.686 61 822 58.3137 822 55V43ZM804 37C800.686 37 798 39.6863 798 43V55C798 58.3137 800.686 61 804 61C807.314 61 810 58.3137 810 55V43C810 39.6863 807.314 37 804 37ZM726 35C726 31.6863 728.686 29 732 29C735.314 29 738 31.6863 738 35V63C738 66.3137 735.314 69 732 69C728.686 69 726 66.3137 726 63V35ZM636 37C632.686 37 630 39.6863 630 43V55C630 58.3137 632.686 61 636 61C639.314 61 642 58.3137 642 55V43C642 39.6863 639.314 37 636 37ZM654 35C654 31.6863 656.686 29 660 29C663.314 29 666 31.6863 666 35V63C666 66.3137 663.314 69 660 69C656.686 69 654 66.3137 654 63V35ZM684 17C680.686 17 678 19.6863 678 23V75C678 78.3137 680.686 81 684 81C687.314 81 690 78.3137 690 75V23C690 19.6863 687.314 17 684 17ZM702 35C702 31.6863 704.686 29 708 29C711.314 29 714 31.6863 714 35V63C714 66.3137 711.314 69 708 69C704.686 69 702 66.3137 702 63V35ZM612 37C608.686 37 606 39.6863 606 43V55C606 58.3137 608.686 61 612 61C615.314 61 618 58.3137 618 55V43C618 39.6863 615.314 37 612 37ZM582 35C582 31.6863 584.686 29 588 29C591.314 29 594 31.6863 594 35V63C594 66.3137 591.314 69 588 69C584.686 69 582 66.3137 582 63V35ZM564 43C560.686 43 558 45.6863 558 49C558 52.3137 560.686 55 564 55C567.314 55 570 52.3137 570 49C570 45.6863 567.314 43 564 43ZM534 49C534 45.6863 536.686 43 540 43C543.314 43 546 45.6863 546 49C546 52.3137 543.314 55 540 55C536.686 55 534 52.3137 534 49ZM516 33C512.686 33 510 35.6863 510 39V59C510 62.3137 512.686 65 516 65C519.314 65 522 62.3137 522 59V39C522 35.6863 519.314 33 516 33ZM462 43C462 39.6863 464.686 37 468 37C471.314 37 474 39.6863 474 43V55C474 58.3137 471.314 61 468 61C464.686 61 462 58.3137 462 55V43ZM492 37C488.686 37 486 39.6863 486 43V55C486 58.3137 488.686 61 492 61C495.314 61 498 58.3137 498 55V43C498 39.6863 495.314 37 492 37ZM438 49C438 45.6863 440.686 43 444 43C447.314 43 450 45.6863 450 49C450 52.3137 447.314 55 444 55C440.686 55 438 52.3137 438 49ZM420 43C416.686 43 414 45.6863 414 49C414 52.3137 416.686 55 420 55C423.314 55 426 52.3137 426 49C426 45.6863 423.314 43 420 43ZM390 35C390 31.6863 392.686 29 396 29C399.314 29 402 31.6863 402 35V63C402 66.3137 399.314 69 396 69C392.686 69 390 66.3137 390 63V35ZM372 43C368.686 43 366 45.6863 366 49C366 52.3137 368.686 55 372 55C375.314 55 378 52.3137 378 49C378 45.6863 375.314 43 372 43ZM342 49C342 45.6863 344.686 43 348 43C351.314 43 354 45.6863 354 49C354 52.3137 351.314 55 348 55C344.686 55 342 52.3137 342 49ZM324 43C320.686 43 318 45.6863 318 49C318 52.3137 320.686 55 324 55C327.314 55 330 52.3137 330 49C330 45.6863 327.314 43 324 43ZM294 49C294 45.6863 296.686 43 300 43C303.314 43 306 45.6863 306 49C306 52.3137 303.314 55 300 55C296.686 55 294 52.3137 294 49ZM276 43C272.686 43 270 45.6863 270 49C270 52.3137 272.686 55 276 55C279.314 55 282 52.3137 282 49C282 45.6863 279.314 43 276 43ZM246 49C246 45.6863 248.686 43 252 43C255.314 43 258 45.6863 258 49C258 52.3137 255.314 55 252 55C248.686 55 246 52.3137 246 49ZM228 43C224.686 43 222 45.6863 222 49C222 52.3137 224.686 55 228 55C231.314 55 234 52.3137 234 49C234 45.6863 231.314 43 228 43ZM198 49C198 45.6863 200.686 43 204 43C207.314 43 210 45.6863 210 49C210 52.3137 207.314 55 204 55C200.686 55 198 52.3137 198 49ZM180 43C176.686 43 174 45.6863 174 49C174 52.3137 176.686 55 180 55C183.314 55 186 52.3137 186 49C186 45.6863 183.314 43 180 43ZM150 49C150 45.6863 152.686 43 156 43C159.314 43 162 45.6863 162 49C162 52.3137 159.314 55 156 55C152.686 55 150 52.3137 150 49ZM132 43C128.686 43 126 45.6863 126 49C126 52.3137 128.686 55 132 55C135.314 55 138 52.3137 138 49C138 45.6863 135.314 43 132 43ZM102 49C102 45.6863 104.686 43 108 43C111.314 43 114 45.6863 114 49C114 52.3137 111.314 55 108 55C104.686 55 102 52.3137 102 49ZM84 43C80.6863 43 78 45.6863 78 49C78 52.3137 80.6863 55 84 55C87.3137 55 90 52.3137 90 49C90 45.6863 87.3137 43 84 43ZM54 49C54 45.6863 56.6863 43 60 43C63.3137 43 66 45.6863 66 49C66 52.3137 63.3137 55 60 55C56.6863 55 54 52.3137 54 49ZM36 43C32.6863 43 30 45.6863 30 49C30 52.3137 32.6863 55 36 55C39.3137 55 42 52.3137 42 49C42 45.6863 39.3137 43 36 43ZM6 49C6 45.6863 8.68628 43 12 43C15.3137 43 18 45.6863 18 49C18 52.3137 15.3137 55 12 55C8.68628 55 6 52.3137 6 49ZM-12 43C-15.3137 43 -18 45.6863 -18 49C-18 52.3137 -15.3137 55 -12 55C-8.68629 55 -6 52.3137 -6 49C-6 45.6863 -8.68629 43 -12 43ZM-42 49C-42 45.6863 -39.3137 43 -36 43C-32.6863 43 -30 45.6863 -30 49C-30 52.3137 -32.6863 55 -36 55C-39.3137 55 -42 52.3137 -42 49ZM-60 43C-63.3137 43 -66 45.6863 -66 49C-66 52.3137 -63.3137 55 -60 55C-56.6863 55 -54 52.3137 -54 49C-54 45.6863 -56.6863 43 -60 43ZM-90 49C-90 45.6863 -87.3137 43 -84 43C-80.6863 43 -78 45.6863 -78 49C-78 52.3137 -80.6863 55 -84 55C-87.3137 55 -90 52.3137 -90 49ZM-108 43C-111.314 43 -114 45.6863 -114 49C-114 52.3137 -111.314 55 -108 55C-104.686 55 -102 52.3137 -102 49C-102 45.6863 -104.686 43 -108 43ZM-138 49C-138 45.6863 -135.314 43 -132 43C-128.686 43 -126 45.6863 -126 49C-126 52.3137 -128.686 55 -132 55C-135.314 55 -138 52.3137 -138 49ZM-156 43C-159.314 43 -162 45.6863 -162 49C-162 52.3137 -159.314 55 -156 55C-152.686 55 -150 52.3137 -150 49C-150 45.6863 -152.686 43 -156 43ZM-186 49C-186 45.6863 -183.314 43 -180 43C-176.686 43 -174 45.6863 -174 49C-174 52.3137 -176.686 55 -180 55C-183.314 55 -186 52.3137 -186 49ZM-204 43C-207.314 43 -210 45.6863 -210 49C-210 52.3137 -207.314 55 -204 55C-200.686 55 -198 52.3137 -198 49C-198 45.6863 -200.686 43 -204 43ZM-234 49C-234 45.6863 -231.314 43 -228 43C-224.686 43 -222 45.6863 -222 49C-222 52.3137 -224.686 55 -228 55C-231.314 55 -234 52.3137 -234 49ZM-252 43C-255.314 43 -258 45.6863 -258 49C-258 52.3137 -255.314 55 -252 55C-248.686 55 -246 52.3137 -246 49C-246 45.6863 -248.686 43 -252 43Z" fill="url(#paint0_linear)"/>
</g>
<defs>
<linearGradient id="paint0_linear" x1="9.71515" y1="17" x2="1428.31" y2="17" gradientUnits="userSpaceOnUse">
<stop stop-color="#4462FC" stop-opacity="0.16"/>
<stop offset="0.196787" stop-color="#4462FC" stop-opacity="0.16"/>
<stop offset="0.303882" stop-color="#4462FC"/>
<stop offset="0.443106" stop-color="#FF4C25"/>
<stop offset="0.558902" stop-color="#FF4C25"/>
<stop offset="0.698126" stop-color="#4462FC"/>
<stop offset="0.804552" stop-color="#4462FC" stop-opacity="0.16"/>
<stop offset="1" stop-color="#4462FC" stop-opacity="0.16"/>
</linearGradient>
<clipPath id="clip0">
<rect width="1440" height="48" fill="white"/>
</clipPath>
</defs>
</svg>
