<svg width="61" height="60" viewBox="0 0 61 60" fill="none" xmlns="http://www.w3.org/2000/svg">
<path d="M25.5 12.5C25.5 11.1739 26.0268 9.90215 26.9645 8.96447C27.9021 8.02678 29.1739 7.5 30.5 7.5C31.8261 7.5 33.0979 8.02678 34.0355 8.96447C34.9732 9.90215 35.5 11.1739 35.5 12.5C38.371 13.8576 40.8185 15.9708 42.5801 18.6132C44.3417 21.2557 45.3511 24.3277 45.5 27.5V35C45.6881 36.5543 46.2386 38.0426 47.107 39.3453C47.9755 40.648 49.1377 41.7285 50.5 42.5H10.5C11.8623 41.7285 13.0245 40.648 13.893 39.3453C14.7614 38.0426 15.3119 36.5543 15.5 35V27.5C15.6489 24.3277 16.6583 21.2557 18.4199 18.6132C20.1815 15.9708 22.629 13.8576 25.5 12.5" stroke="white" stroke-opacity="0.87" stroke-width="2.91607" stroke-linecap="round" stroke-linejoin="round"/>
<path d="M23 42.5V45C23 46.9891 23.7902 48.8968 25.1967 50.3033C26.6032 51.7098 28.5109 52.5 30.5 52.5C32.4891 52.5 34.3968 51.7098 35.8033 50.3033C37.2098 48.8968 38 46.9891 38 45V42.5" stroke="white" stroke-opacity="0.87" stroke-width="2.91607" stroke-linecap="round" stroke-linejoin="round"/>
<path d="M53.0001 16.8175C51.3603 13.2506 48.9791 10.0742 46.0151 7.5" stroke="white" stroke-opacity="0.87" stroke-width="2.91607" stroke-linecap="round" stroke-linejoin="round"/>
<path d="M8 16.8175C9.63837 13.2511 12.0179 10.0747 14.98 7.5" stroke="white" stroke-opacity="0.87" stroke-width="2.91607" stroke-linecap="round" stroke-linejoin="round"/>
</svg>
