<svg id="Layer_1" data-name="Layer 1" xmlns="http://www.w3.org/2000/svg" viewBox="0 0 1366 552"><defs><style>.cls-1{fill:#f3f;}.cls-2{fill:#fff;}</style></defs><path class="cls-1" d="M156,434.3H89v-67h67Z"/><path class="cls-2" d="M475.17,245.25a101.14,101.14,0,0,0-20.07-7.31,98.42,98.42,0,0,0-23.53-2.53,106.77,106.77,0,0,0-34.44,5.45,76.12,76.12,0,0,0-27.78,16.35,74.08,74.08,0,0,0-18.21,27.26q-6.52,16.35-6.52,38.68v61.69h55.57V434.3H241.65V384.84h47.93V236.21H244.37V186.49H344.62v62.22q13.56-37.23,40-52.65t62.88-15.42A127.73,127.73,0,0,1,471.45,183a91.43,91.43,0,0,1,24.46,8.51Z"/><path class="cls-2" d="M722.28,434.3h-161V384.84H610.6V235.94H561.28V186.49H665.64V384.84h56.64ZM669,154.32H599.31v-67H669Z"/><path class="cls-2" d="M1004.91,235.94H908.4v148.9H965V434.3H804V384.84h49.33V235.94H804V186.49h49.33q0-51.06,31.37-78t84.82-27q8,0,17,.8t18.34,1.86v48.39q-15.95-1.59-29-1.59-21.27,0-34.3,3.05t-20.34,9.84a35.42,35.42,0,0,0-10.1,17.42,100.45,100.45,0,0,0-2.79,25.26h96.51Z"/><path class="cls-2" d="M1278,235.94h-96.52v148.9h56.64V434.3h-161V384.84h49.32V235.94h-49.32V186.49h49.32q0-51.06,31.38-78t84.82-27c5.31,0,11,.27,17,.8s12.14,1.15,18.35,1.86v48.39q-16-1.59-29-1.59-21.27,0-34.3,3.05t-20.34,9.84a35.44,35.44,0,0,0-10.11,17.42,100.45,100.45,0,0,0-2.79,25.26H1278Z"/></svg>