<svg width="67" height="20" viewBox="0 0 67 20" fill="none" xmlns="http://www.w3.org/2000/svg">
<path d="M3.75666 19.7767H0V16.021H3.75666V19.7767Z" fill="#FF33FF"/>
<path d="M21.6524 9.17932C21.2929 9.00341 20.9156 8.86606 20.5271 8.76956C20.0947 8.66941 19.6517 8.62179 19.2078 8.62774C18.5517 8.6231 17.8994 8.72631 17.2768 8.93324C16.6981 9.12407 16.167 9.43658 15.7192 9.84974C15.2689 10.2765 14.9201 10.7986 14.6981 11.3778C14.4544 11.9888 14.3326 12.7115 14.3326 13.546V17.004H17.4483V19.7765H8.55908V17.004H11.2465V8.67259H8.71159V5.88554H14.3326V9.37327C14.8394 7.98199 15.587 6.99823 16.5753 6.42198C17.5637 5.84574 18.7389 5.55762 20.101 5.55762C20.5518 5.55936 21.0014 5.60366 21.4439 5.68991C21.9213 5.78305 22.3831 5.94367 22.8153 6.16693L21.6524 9.17932Z" fill="white"/>
<path d="M35.5077 19.7766H26.4805V17.0041H29.2458V8.65753H26.4805V5.88562H32.3319V17.0041H35.5077V19.7766ZM32.5203 4.08234H28.6128V0.32666H32.5203V4.08234Z" fill="white"/>
<path d="M51.3545 8.65767H45.9433V17.0042H49.1168V19.7767H40.0896V17.0042H42.8555V8.65767H40.0896V5.88576H42.8555C42.8555 3.97765 43.4418 2.52023 44.6144 1.51348C45.787 0.506736 47.3723 0.00224219 49.3702 0C49.6693 0 49.987 0.0149481 50.3234 0.0448441C50.6598 0.07474 51.0026 0.109494 51.3517 0.149106V2.8616C50.7555 2.80218 50.2135 2.77247 49.7257 2.77247C48.9306 2.77247 48.2896 2.82946 47.8025 2.94344C47.3155 3.05742 46.9353 3.24128 46.6621 3.49502C46.3828 3.75888 46.1861 4.09809 46.0958 4.4715C45.9839 4.93495 45.9313 5.41074 45.9393 5.88744H51.3506L51.3545 8.65767Z" fill="white"/>
<path d="M66.6666 8.65767H61.2547V17.0042H64.4305V19.7767H55.4033V17.0042H58.1687V8.65767H55.4033V5.88576H58.1687C58.1687 3.97765 58.7552 2.52023 59.9281 1.51348C61.1011 0.506736 62.6864 0.00224219 64.684 0C64.9817 0 65.3007 0.015135 65.6371 0.0448441C65.9735 0.0745531 66.3178 0.109307 66.666 0.149106V2.8616C66.0679 2.80218 65.5259 2.77247 65.04 2.77247C64.2449 2.77247 63.6039 2.82946 63.1168 2.94344C62.6297 3.05742 62.2496 3.24128 61.9764 3.49502C61.6969 3.75885 61.5 4.09805 61.4095 4.4715C61.2976 4.93495 61.245 5.41074 61.2531 5.88744H66.6666V8.65767Z" fill="white"/>
</svg>
