<svg width="61" height="60" viewBox="0 0 61 60" fill="none" xmlns="http://www.w3.org/2000/svg">
<path d="M53 30V37.5C53 38.163 52.7366 38.7989 52.2678 39.2678C51.7989 39.7366 51.163 40 50.5 40H10.5C9.83696 40 9.20107 39.7366 8.73223 39.2678C8.26339 38.7989 8 38.163 8 37.5V12.5C8 11.837 8.26339 11.2011 8.73223 10.7322C9.20107 10.2634 9.83696 10 10.5 10H33" stroke="white" stroke-opacity="0.87" stroke-width="2.91607" stroke-linecap="round" stroke-linejoin="round"/>
<path d="M18 50H43" stroke="white" stroke-opacity="0.87" stroke-width="2.91607" stroke-linecap="round" stroke-linejoin="round"/>
<path d="M23 40V50" stroke="white" stroke-opacity="0.87" stroke-width="2.91607" stroke-linecap="round" stroke-linejoin="round"/>
<path d="M38 40V50" stroke="white" stroke-opacity="0.87" stroke-width="2.91607" stroke-linecap="round" stroke-linejoin="round"/>
<path d="M43 10H53V20" stroke="white" stroke-opacity="0.87" stroke-width="2.91607" stroke-linecap="round" stroke-linejoin="round"/>
<path d="M40.5 22.5L53 10" stroke="white" stroke-opacity="0.87" stroke-width="2.91607" stroke-linecap="round" stroke-linejoin="round"/>
</svg>
