<svg width="61" height="60" viewBox="0 0 61 60" fill="none" xmlns="http://www.w3.org/2000/svg">
<path d="M30.4999 7.50047C30.8299 7.50047 31.1574 7.50047 31.4824 7.50047C28.2708 10.4847 26.2064 14.5001 25.6482 18.8485C25.0899 23.197 26.0731 27.6036 28.4268 31.3023C30.7805 35.001 34.3559 37.7581 38.5314 39.0941C42.707 40.4302 47.2188 40.2608 51.2824 38.6155C49.7193 42.3767 47.1644 45.6431 43.8904 48.0661C40.6164 50.4892 36.7461 51.9781 32.6922 52.3739C28.6384 52.7698 24.5531 52.0579 20.8722 50.314C17.1912 48.5701 14.0527 45.8597 11.7914 42.472C9.5301 39.0842 8.23082 35.1462 8.03216 31.0779C7.83349 27.0096 8.7429 22.9637 10.6634 19.3718C12.5838 15.7798 15.4433 12.7765 18.9368 10.6823C22.4304 8.58808 26.4268 7.48145 30.4999 7.48047V7.50047Z" stroke="white" stroke-opacity="0.87" stroke-width="2.91607" stroke-linecap="round" stroke-linejoin="round"/>
</svg>
